# xmcd
#
# Track frame offsets: 
#        150
#        14021
#        32135
#        48059
#        60081
#        74330
#        90465
#        102383
#        114767
#        129512
#        150815
#
# Disc length: 2222 seconds
#
# Revision: 1
# Processed by: cddbd v1.5.2PL0 Copyright (c) Steve Scherf et al.
# Submitted via: ExactAudioCopy v0.95b4
#
DISCID=7908ac0b
DTITLE=Clairy Browne and The Bangin' Rackettes - Baby Caught The Bus
DYEAR=2011
DGENRE=Jazz
TTITLE0=Love Letter <D. McNulty, S. Schram>
TTITLE1=Vicious Cycle <J. Pascoe>
TTITLE2=Aeroplane <D. McNulty>
TTITLE3=Baby Caught the Bus <J. Pascoe>
TTITLE4=I'll be Fine <J. Pascoe, C. Browne>
TTITLE5=Far Too Late <J. Pascoe>
TTITLE6=Bang Bang <S. Bono>
TTITLE7=She Plays Up to You <S. P. Jones>
TTITLE8=Frankie <D. McNulty>
TTITLE9=Yellow Bird <D. McNulty, C. Browne>
TTITLE10=You Don't Owe Me Nothing <S. P. Jones>
EXTD=
EXTT0=
EXTT1=
EXTT2=
EXTT3=
EXTT4=
EXTT5=
EXTT6=
EXTT7=
EXTT8=
EXTT9=
EXTT10=
PLAYORDER=
